<?xml version="1.0" encoding="UTF-8" standalone="no"?>
<!-- Created with Inkscape (http://www.inkscape.org/) -->

<svg
   width="496mm"
   height="203mm"
   viewBox="0 0 496 203"
   version="1.1"
   id="svg1"
   xml:space="preserve"
   inkscape:export-filename="logo_orange_pattern.svg"
   inkscape:export-xdpi="59.992378"
   inkscape:export-ydpi="59.992378"
   xmlns:inkscape="http://www.inkscape.org/namespaces/inkscape"
   xmlns:sodipodi="http://sodipodi.sourceforge.net/DTD/sodipodi-0.dtd"
   xmlns:xlink="http://www.w3.org/1999/xlink"
   xmlns="http://www.w3.org/2000/svg"
   xmlns:svg="http://www.w3.org/2000/svg"
   xmlns:rdf="http://www.w3.org/1999/02/22-rdf-syntax-ns#"
   xmlns:cc="http://creativecommons.org/ns#"
   xmlns:dc="http://purl.org/dc/elements/1.1/"><defs
     id="defs1"><linearGradient
       id="linearGradient36"
       inkscape:collect="always"><stop
         style="stop-color:#ef560f;stop-opacity:1;"
         offset="0"
         id="stop36" /><stop
         style="stop-color:#ef560f;stop-opacity:0;"
         offset="1"
         id="stop37" /></linearGradient><linearGradient
       id="linearGradient34"
       inkscape:collect="always"><stop
         style="stop-color:#f44f00;stop-opacity:1;"
         offset="0"
         id="stop34" /><stop
         style="stop-color:#f44f00;stop-opacity:0;"
         offset="1"
         id="stop35" /></linearGradient><linearGradient
       id="linearGradient32"
       inkscape:collect="always"><stop
         style="stop-color:#ef560f;stop-opacity:1;"
         offset="0"
         id="stop32" /><stop
         style="stop-color:#ef560f;stop-opacity:0;"
         offset="1"
         id="stop33" /></linearGradient><linearGradient
       id="linearGradient29"
       inkscape:collect="always"><stop
         style="stop-color:#ef560f;stop-opacity:1;"
         offset="0"
         id="stop29" /><stop
         style="stop-color:#ef560f;stop-opacity:0;"
         offset="1"
         id="stop30" /></linearGradient><linearGradient
       id="a"
       x2="0"
       y1="-35.773998"
       y2="145.91"
       gradientUnits="userSpaceOnUse"
       gradientTransform="matrix(0.19636026,0,0,0.20615956,-261.16752,-9.3723969)"><stop
         stop-color="#fb9e00"
         offset="0"
         id="stop1" /><stop
         stop-color="#f44f00"
         offset="1"
         id="stop2" /></linearGradient><linearGradient
       id="b"
       x1="612.42999"
       x2="601.31"
       y1="548.91998"
       y2="642.83002"
       gradientUnits="userSpaceOnUse"
       gradientTransform="matrix(0.19636026,0,0,0.20615956,355.13867,451.39476)"><stop
         stop-color="#fff"
         offset="0"
         id="stop3" /><stop
         stop-color="#fff"
         stop-opacity=".66667"
         offset="0"
         id="stop4" /><stop
         stop-color="#9dbbe1"
         stop-opacity=".08943"
         offset="1"
         id="stop5" /></linearGradient><linearGradient
       inkscape:collect="always"
       xlink:href="#linearGradient29"
       id="linearGradient28"
       x1="2218.2849"
       y1="202.97331"
       x2="2365.4189"
       y2="-19.065184"
       gradientUnits="userSpaceOnUse" /><linearGradient
       inkscape:collect="always"
       xlink:href="#linearGradient32"
       id="linearGradient33"
       x1="1542.907"
       y1="243.24474"
       x2="1722.5121"
       y2="83.438599"
       gradientUnits="userSpaceOnUse" /><linearGradient
       inkscape:collect="always"
       xlink:href="#linearGradient34"
       id="linearGradient35"
       x1="1632.0024"
       y1="415.77878"
       x2="1673.0146"
       y2="339.41125"
       gradientUnits="userSpaceOnUse" /><linearGradient
       inkscape:collect="always"
       xlink:href="#linearGradient36"
       id="linearGradient37"
       x1="2180.7173"
       y1="534.57269"
       x2="2221.7295"
       y2="449.71991"
       gradientUnits="userSpaceOnUse" /></defs><sodipodi:namedview
     id="base"
     pagecolor="#ffffff"
     bordercolor="#000000"
     borderopacity="0.3"
     inkscape:pageopacity="0.0"
     inkscape:pageshadow="2"
     inkscape:zoom="0.70710678"
     inkscape:cx="548.00775"
     inkscape:cy="242.53762"
     inkscape:document-units="mm"
     inkscape:showpageshadow="2"
     inkscape:pagecheckerboard="0"
     inkscape:deskcolor="#d1d1d1"
     inkscape:window-width="5160"
     inkscape:window-height="2054"
     inkscape:window-x="-11"
     inkscape:window-y="133"
     inkscape:window-maximized="1"
     inkscape:current-layer="svg1" /><metadata
     id="metadata1"><rdf:RDF><cc:Work
         rdf:about=""><dc:format>image/svg+xml</dc:format><dc:type
           rdf:resource="http://purl.org/dc/dcmitype/StillImage" /></cc:Work></rdf:RDF></metadata><g
     id="g11"
     transform="matrix(0.96273529,0,0,0.99485118,0.56237491,0.05890963)"><path
       d="m 106.4122,13.214003 v 61.965958 q 0,11.598917 -6.997175,18.911279 -6.997173,7.31236 -18.09179,7.31236 -13.363971,0 -20.424182,-12.166255 -4.349594,6.55591 -9.329564,9.392602 -4.97997,2.773653 -12.292331,2.773653 -11.598918,0 -17.776602,-7.31236 -6.177685,-7.312362 -6.177685,-21.054558 V 13.214003 h 25.593264 v 55.977386 q 0,4.160481 0.630376,5.484271 0.693414,1.323789 2.710617,1.323789 3.782256,0 3.782256,-6.366797 V 13.214003 h 25.593264 v 55.977386 q 0,4.034406 0.693414,5.421233 0.693413,1.386827 2.710616,1.386827 3.782256,0 3.782256,-6.80806 V 13.214003 Z"
       id="text2"
       style="font-size:129.101px;font-family:'Bauhaus 93';-inkscape-font-specification:'Bauhaus 93, Normal';font-variant-position:super;text-align:center;text-anchor:middle;fill:#d4d4d4;stroke:#d4d4d4;stroke-width:0.672061"
       aria-label="W" /><path
       d="m 189.72165,15.052759 0.77338,59.522388 c 0.0814,6.268159 2.34521,9.402942 7.03564,9.402942 2.00081,0 3.69003,-0.64577 5.06763,-1.937284 1.41041,-1.323037 2.11561,-2.913815 2.11561,-4.772353 0,-1.92154 -0.65601,-3.528072 -1.96801,-4.819599 -1.312,-1.323028 -2.91921,-1.984541 -4.82163,-1.984541 -1.34479,0 -2.88641,0.567013 -4.62482,1.701036 V 52.697951 c 2.16481,-0.189003 3.80482,-0.283505 4.92003,-0.283505 6.92083,0 12.84125,2.394049 17.76129,7.182146 4.95281,4.788097 7.42923,10.552715 7.42923,17.293852 0,6.898648 -2.50921,12.7105 -7.52763,17.435607 -5.01843,4.725094 -11.18487,7.087639 -18.49931,7.087639 -3.67361,0 -7.26524,-0.77177 -10.77485,-2.315286 -3.47682,-1.543531 -6.34683,-3.622577 -8.61005,-6.237128 -3.93602,-4.536098 -5.90403,-10.410969 -5.90403,-17.624616 l -0.73154,-59.926484 z"
       id="text4"
       style="font-size:78.8751px;font-family:'Bauhaus 93';-inkscape-font-specification:'Bauhaus 93, Normal';font-variant-position:super;text-align:center;text-anchor:middle;fill:#d4d4d4;fill-opacity:1;stroke:#d4d4d4;stroke-width:0.514041;stroke-opacity:1"
       aria-label="b"
       sodipodi:nodetypes="csscscsccscsssccscc" /><path
       d="m 160.9899,72.594961 v 31.640249 q -3.57885,-1.22006 -5.53094,-1.22006 -3.74152,0 -6.42566,2.76547 -2.68413,2.76547 -2.68413,6.66967 0,3.33483 2.92814,8.45909 l 2.52146,4.39222 q 6.83235,11.87526 6.83235,22.93714 0,16.18615 -11.54991,27.41071 -11.46858,11.22456 -28.06141,11.22456 -7.97106,0 -15.77945,-3.66019 v -32.12827 q 4.71757,3.00949 8.37775,3.00949 4.31088,0 7.15769,-2.44013 2.92815,-2.52146 2.92815,-6.26298 0,-2.44012 -4.63624,-10.6552 -7.4017,-13.01398 -7.4017,-26.02796 0,-15.698122 11.14322,-27.004021 11.22457,-11.387236 26.76001,-11.387236 6.83234,0 13.42067,2.277448 z"
       id="text5"
       style="font-size:166.579px;font-family:'Bauhaus 93';-inkscape-font-specification:'Bauhaus 93, Normal';font-variant-position:super;text-align:center;text-anchor:middle;fill:#d4d4d4;stroke:#d4d4d4;stroke-width:0.867164"
       aria-label="S" /><path
       d="m 200.83957,137.96367 18.22314,-0.80628 q -0.78591,12.43985 -7.90816,20.44512 -7.12224,8.00528 -17.33899,8.00528 -10.80616,0 -18.27223,-8.81156 -7.41697,-8.81156 -7.41697,-21.59697 0,-12.15189 7.5152,-20.79067 7.5152,-8.63879 18.02666,-8.63879 9.18524,0 16.20924,6.79584 7.02401,6.79585 8.74318,17.33517 l -18.61609,0.80628 q -2.40682,-3.68588 -6.09074,-3.68588 -3.14361,0 -5.1575,2.41887 -2.01387,2.41885 -2.01387,6.10474 0,3.74347 2.11212,6.27751 2.16123,2.53405 5.35396,2.53405 4.6663,0 6.63105,-6.39271 z"
       id="text6"
       style="font-size:89.1546px;font-family:'Bauhaus 93';-inkscape-font-specification:'Bauhaus 93, Normal';font-variant-position:super;text-align:center;text-anchor:middle;fill:#d4d4d4;fill-opacity:1;stroke:#d4d4d4;stroke-width:0.567041;stroke-opacity:1"
       aria-label="c" /><path
       d="m 260.35155,106.94875 v 22.94551 q -2.23719,-1.26201 -4.07283,-1.26201 -5.85111,0 -5.85111,8.94875 v 27.13307 h -21.45405 v -31.26326 q 0,-12.39057 6.76893,-19.73314 6.76892,-7.39992 18.06959,-7.39992 2.524,0 6.53947,0.631 z"
       id="text7"
       style="font-size:117.481px;font-family:'Bauhaus 93';-inkscape-font-specification:'Bauhaus 93, Normal';font-variant-position:super;text-align:center;text-anchor:middle;fill:#d4d4d4;stroke:#d4d4d4;stroke-width:0.611573"
       transform="scale(0.99304037,1.0070084)"
       aria-label="r" /><path
       d="m 313.50708,167.82806 h -16.68484 v -37.11707 q 0,-10.21611 5.35342,-16.64022 3.07822,-3.70279 7.80708,-5.88877 4.77347,-2.18598 9.77,-2.18598 9.94844,0 16.77406,6.69178 6.82561,6.69178 6.82561,16.41717 0,9.45771 -6.781,16.32794 -6.781,6.87023 -16.06027,6.87023 -1.51681,0 -4.46119,-0.31229 v -18.38008 q 2.05215,1.65063 4.10429,1.65063 2.58749,0 4.41658,-1.91831 1.8737,-1.91831 1.8737,-4.55041 0,-2.6321 -1.91831,-4.46118 -1.91831,-1.8737 -4.59503,-1.8737 -6.4241,0 -6.4241,8.87776 z"
       id="text9"
       style="font-size:91.3651px;font-family:'Bauhaus 93';-inkscape-font-specification:'Bauhaus 93, Normal';font-variant-position:super;text-align:center;text-anchor:middle;fill:#d4d4d4;stroke:#d4d4d4;stroke-width:0.475618"
       transform="scale(1.0134059,0.98677144)"
       aria-label="p" /><path
       d="m 166.52391,42.814287 h -29.59502 q -0.67854,-2.24442 -0.67854,-4.123469 0,-2.60979 0.93952,-5.115188 h 9.9172 q -1.04391,-5.793734 -6.52447,-5.793734 -3.65371,0 -5.95032,3.131748 -2.29662,3.079552 -2.29662,7.933762 0,5.062993 2.19223,8.194741 2.24442,3.131748 5.84593,3.131748 2.92296,0 5.63714,-2.922965 l 11.11771,13.362125 q -7.77718,6.106909 -17.27681,6.106909 -11.58747,0 -19.46904,-7.777174 -7.88156,-7.777175 -7.88156,-19.260251 0,-11.430881 7.93376,-19.312447 7.98596,-7.881566 19.57343,-7.881566 11.32648,0 18.99927,7.724978 7.72498,7.672783 7.72498,18.947077 0,1.148307 -0.20879,3.653706 z"
       id="text3"
       style="font-size:106.897px;font-family:'Bauhaus 93';-inkscape-font-specification:'Bauhaus 93, Normal';font-variant-position:super;text-align:center;text-anchor:middle;fill:#d4d4d4;stroke:#d4d4d4;stroke-width:0.556476"
       aria-label="e" /><path
       d="m 351.61448,16.495123 -0.43883,75.313127 9.24599,0.339293 0.0108,15.630527 -9.47524,-0.60848 c 0,3.69037 -0.71225,45.211 0.43508,46.60652 1.17844,1.39552 6.01387,4.58589 9.11502,4.58589 v 18.28127 c -0.89933,0.031 -1.56608,0.0465 -2.00024,0.0465 -3.93846,0 -7.65984,-0.91484 -11.16414,-2.74452 -3.47329,-1.82968 -6.26432,-4.3106 -8.3731,-7.44276 -2.66699,-4.00048 -4.00048,-9.30344 -4.00048,-15.90889 V 16.495103 Z"
       id="text10"
       style="font-size:95.2673px;font-family:'Bauhaus 93';-inkscape-font-specification:'Bauhaus 93, Normal';font-variant-position:super;text-align:center;text-anchor:middle;fill:#d4d4d4;stroke:#d4d4d4;stroke-width:0.495933"
       transform="scale(1.0658493,0.93821893)"
       aria-label="t"
       sodipodi:nodetypes="ccccccccsccscc" /><path
       d="m 299.55413,101.98485 v 58.24077 H 277.70654 V 101.98485 Z M 288.68875,75.989721 q 4.43962,0 7.6525,3.154465 3.2713,3.096049 3.2713,7.360418 0,4.556449 -3.09605,7.47725 -3.03764,2.920801 -7.82775,2.920801 -4.79011,0 -7.88616,-2.920801 -3.03763,-2.920801 -3.03763,-7.47725 0,-4.264369 3.21288,-7.360418 3.27129,-3.154465 7.71091,-3.154465 z"
       id="text11"
       style="font-size:119.636px;font-family:'Bauhaus 93';-inkscape-font-specification:'Bauhaus 93, Normal';font-variant-position:super;text-align:center;text-anchor:middle;fill:#d4d4d4;stroke:#d4d4d4;stroke-width:0.194333"
       transform="scale(0.96390652,1.037445)"
       aria-label="i" /><g
       transform="matrix(0.36555989,0,0,0.33694378,59.143292,-140.14614)"
       id="g8"><path
         transform="matrix(0.96342,0,0,0.97561,746.5,576.06)"
         d="m -59.822,55.066 c 0,50.17 -40.671,90.841 -90.841,90.841 -50.17,0 -90.841,-40.671 -90.841,-90.841 0,-50.17 40.671,-90.841 90.841,-90.841 50.17,0 90.841,40.671 90.841,90.841 z"
         fill="#f44800"
         id="path5" /><path
         transform="matrix(0.91463,0,0,0.91463,739.15,579.42)"
         d="m -59.822,55.066 c 0,50.17 -40.671,90.841 -90.841,90.841 -50.17,0 -90.841,-40.671 -90.841,-90.841 0,-50.17 40.671,-90.841 90.841,-90.841 50.17,0 90.841,40.671 90.841,90.841 z"
         fill="url(#a)"
         id="path6"
         style="fill:url(#a)" /><path
         d="m 604.45,572.84 c -15.548,-0.76361 -30.461,4.569 -41.986,15.02 -11.542,10.462 -18.311,24.78 -19.074,40.317 -0.76365,15.548 4.569,30.461 15.031,41.992 10.445,11.53 24.764,18.299 40.312,19.062 32.101,1.5766 59.478,-23.248 61.054,-55.338 1.576,-32.09 -23.237,-59.478 -55.338,-61.054 z m 46.051,60.598 c -0.26717,5.4399 -1.4288,10.624 -3.306,15.423 -3.909,-0.50912 -7.7667,-1.1549 -11.573,-1.9484 3.9043,-9.479 5.2381,-19.869 3.7585,-30.302 -1.41,-9.9236 -5.2749,-18.922 -10.87,-26.452 13.97,9.2273 22.869,25.378 21.99,43.28 z m -37.374,-40.819 c -9.5766,10.998 -17.75,23.222 -24.236,36.435 -5.486,-3.1795 -10.767,-6.6773 -15.823,-10.459 4.1242,-7.8379 10.307,-14.428 18.082,-19.099 6.9094,-4.1622 14.442,-6.3907 21.977,-6.8775 z m -28.103,44.937 c -4.1364,9.7848 -7.3786,20.059 -9.5992,30.717 -0.34182,-0.51754 -0.67755,-1.046 -0.99636,-1.5792 -6.7443,-11.209 -8.7125,-24.382 -5.5582,-37.059 0.17504,-0.73145 0.38174,-1.428 0.59008,-2.1578 4.9905,3.6393 10.184,7.0049 15.564,10.079 z m 3.5588,35.736 c -1.5859,0.2281 -3.1669,0.3563 -4.7396,0.4294 2.034,-11.051 5.2099,-21.673 9.4111,-31.761 9.0428,4.5173 18.542,8.2445 28.429,11.089 -0.27443,0.376 -0.55021,0.77984 -0.83629,1.1664 -7.8641,10.459 -19.314,17.224 -32.264,19.076 z m 8.5043,-39.807 c 6.5283,-13.395 14.89,-25.71 24.755,-36.683 4.2686,6.1023 7.212,13.241 8.3283,21.103 1.3143,9.2679 -0.012,18.484 -3.7375,26.814 -10.236,-2.773 -20.054,-6.5604 -29.345,-11.234 z m -28.379,-38.725 c 9.6909,-8.7943 22.219,-13.276 35.286,-12.634 2.9531,0.14503 5.8368,0.57049 8.621,1.208 -9.0088,0.57026 -18.009,3.222 -26.259,8.1864 -8.7324,5.2522 -15.779,12.54 -20.66,21.176 -2.2652,-1.9141 -4.4778,-3.8812 -6.6422,-5.9239 2.5328,-4.4384 5.7644,-8.4918 9.6543,-12.012 z m -16.025,33.873 c 0.21839,-4.4462 1.0369,-8.7629 2.391,-12.881 2.1465,1.9528 4.3401,3.8522 6.5862,5.7042 -0.70105,1.9242 -1.3102,3.903 -1.8215,5.9312 -2.4962,10.038 -2.2778,20.32 0.4958,30.01 -5.458,-8.5088 -8.1572,-18.468 -7.6515,-28.765 z m 47.785,51.341 c 11.022,-3.721 20.677,-10.658 27.816,-20.173 1.0478,-1.3952 2.031,-2.8326 2.9439,-4.3124 3.7816,0.83673 7.5972,1.5472 11.469,2.138 -8.981,13.826 -24.694,22.764 -42.229,22.348 z"
         fill="#ffffff"
         id="path7" /><path
         d="m 601.36,546.69 c -45.16,0 -81.909,36.056 -83.062,80.938 37.387,15.04 95.243,25.784 166.03,-2.0938 -2.2099,-43.915 -38.505,-78.844 -82.969,-78.844 z"
         fill="url(#b)"
         opacity="0.7572"
         id="path8"
         style="fill:url(#b)" /></g><path
       sodipodi:type="star"
       style="fill:url(#linearGradient33);fill-opacity:1;stroke:#d4d4d4;stroke-width:0.168598;stroke-opacity:1"
       id="path17"
       inkscape:flatsided="false"
       sodipodi:sides="5"
       sodipodi:cx="1552.8065"
       sodipodi:cy="223.44574"
       sodipodi:r1="94.021271"
       sodipodi:r2="47.010635"
       sodipodi:arg1="0.80667155"
       sodipodi:arg2="1.4349901"
       inkscape:rounded="0"
       inkscape:randomized="0"
       d="m 1617.8603,291.32799 -58.6891,-21.30447 -50.8218,36.26885 2.1258,-62.40008 -50.1985,-37.12677 60.0029,-17.26091 19.7975,-59.21444 34.958,51.73226 62.434,0.53022 -38.3977,49.2332 z"
       transform="matrix(0.27482459,0,0,0.26595268,32.840674,61.999575)"
       inkscape:transform-center-x="1.0407735"
       inkscape:transform-center-y="-1.363786" /><path
       sodipodi:type="star"
       style="fill:url(#linearGradient35);fill-opacity:1;stroke:#d4d4d4;stroke-width:0.168598;stroke-opacity:1"
       id="path18"
       inkscape:flatsided="false"
       sodipodi:sides="5"
       sodipodi:cx="1630.5883"
       sodipodi:cy="395.9798"
       sodipodi:r1="65.513359"
       sodipodi:r2="32.75668"
       sodipodi:arg1="1.8105394"
       sodipodi:arg2="2.438858"
       inkscape:rounded="0"
       inkscape:randomized="0"
       d="m 1615.0319,459.61941 -9.4395,-42.46875 -40.3362,-16.30011 37.4732,-22.1011 3.0378,-43.39897 32.5992,28.80951 42.2136,-10.52193 -17.3257,39.90636 23.0516,36.89606 -43.3071,-4.14602 z"
       transform="matrix(0.27482459,0,0,0.26595268,32.063351,-16.608225)"
       inkscape:transform-center-x="1.2719019"
       inkscape:transform-center-y="0.39823814" /><path
       sodipodi:type="star"
       style="fill:#f34e00;fill-opacity:0.682353;stroke:#d4d4d4;stroke-width:0.168598;stroke-opacity:1"
       id="path23"
       inkscape:flatsided="false"
       sodipodi:sides="5"
       sodipodi:cx="1434.0125"
       sodipodi:cy="552.95752"
       sodipodi:r1="81.633324"
       sodipodi:r2="40.816666"
       sodipodi:arg1="1.3258177"
       sodipodi:arg2="1.9541362"
       inkscape:rounded="0"
       inkscape:randomized="0"
       d="m 1453.8114,632.15348 -35.0652,-41.34174 -53.9354,5.44863 28.4826,-46.12432 -21.8489,-49.61185 52.6685,12.83534 40.432,-36.11045 4.0683,54.057 46.8372,27.29437 -50.1541,20.57372 z"
       transform="matrix(0.13714886,0,0,0.13272141,241.31878,-23.756669)"
       inkscape:transform-center-x="-0.80783821"
       inkscape:transform-center-y="0.23024337" /><path
       sodipodi:type="star"
       style="fill:url(#linearGradient28);fill-opacity:1;stroke:#d4d4d4;stroke-width:0.168598;stroke-opacity:1"
       id="path24"
       inkscape:flatsided="false"
       sodipodi:sides="5"
       sodipodi:cx="2244.3569"
       sodipodi:cy="158.39192"
       sodipodi:r1="198.15649"
       sodipodi:r2="99.078262"
       sodipodi:arg1="1.1518474"
       sodipodi:arg2="1.7801659"
       inkscape:rounded="0"
       inkscape:randomized="0"
       d="m 2324.9671,339.41125 -101.2029,-84.10472 -126.657,35.68826 48.715,-122.23948 -73.0808,-109.429638 131.3104,8.556572 81.4906,-103.319501 32.4394,127.527732 123.4447,45.574675 -111.2618,70.2599 z"
       transform="matrix(0.14528487,0,0,0.14059477,86.780966,116.95987)"
       inkscape:transform-center-x="-1.7801384"
       inkscape:transform-center-y="-0.89586264" /><path
       sodipodi:type="star"
       style="fill:url(#linearGradient37);fill-opacity:1;stroke:#d4d4d4;stroke-width:0.168598;stroke-opacity:1"
       id="path25"
       inkscape:flatsided="false"
       sodipodi:sides="5"
       sodipodi:cx="2186.3743"
       sodipodi:cy="516.18793"
       sodipodi:r1="54.918121"
       sodipodi:r2="27.459064"
       sodipodi:arg1="0.96850898"
       sodipodi:arg2="1.5968275"
       inkscape:rounded="0"
       inkscape:randomized="0"
       d="m 2217.487,561.44276 -31.8274,-17.80507 -32.7109,16.12468 7.0984,-35.77173 -25.4437,-26.12706 36.2145,-4.30307 16.9858,-32.2721 15.2833,33.11229 35.9415,6.18181 -26.7688,24.76759 z"
       transform="matrix(0.27482459,0,0,0.26595268,-145.16591,-67.007485)"
       inkscape:transform-center-x="-0.1168663"
       inkscape:transform-center-y="-1.2759088" /><path
       sodipodi:type="star"
       style="fill:#ef560f;fill-opacity:0.839216;stroke:#d4d4d4;stroke-width:0.168598;stroke-opacity:1"
       id="path26"
       inkscape:flatsided="false"
       sodipodi:sides="5"
       sodipodi:cx="2377.293"
       sodipodi:cy="528.91589"
       sodipodi:r1="27.202942"
       sodipodi:r2="13.601472"
       sodipodi:arg1="1.4141944"
       sodipodi:arg2="2.042513"
       inkscape:rounded="0"
       inkscape:randomized="0"
       d="m 2381.5356,555.78595 -10.4234,-14.75401 -18.0631,0.22225 10.8109,-14.47245 -5.7932,-17.11042 17.1048,5.80954 14.4828,-10.79706 -0.2395,18.06295 14.7441,10.43746 -17.2529,5.35397 z"
       transform="matrix(0.27482459,0,0,0.26595268,-220.17741,-111.38893)"
       inkscape:transform-center-x="-0.34687676"
       inkscape:transform-center-y="0.34898271" /><path
       sodipodi:type="star"
       style="fill:#f54f00;fill-opacity:0.580392;stroke:#d4d4d4;stroke-width:0.168598;stroke-opacity:1"
       id="path27"
       inkscape:flatsided="false"
       sodipodi:sides="5"
       sodipodi:cx="2520.1287"
       sodipodi:cy="407.29349"
       sodipodi:r1="160.82288"
       sodipodi:r2="80.411446"
       sodipodi:arg1="0.59775839"
       sodipodi:arg2="1.2260769"
       inkscape:rounded="0"
       inkscape:randomized="0"
       d="m 2653.0647,497.80315 -105.7624,-14.8288 -72.1739,78.71788 -18.5794,-105.16839 -97.1681,-44.31635 94.2797,-50.16884 12.1208,-106.10688 76.8474,74.16234 104.6592,-21.26131 -46.7854,96.00368 z"
       transform="matrix(0.024042,0.02487739,-0.02570728,0.02326588,396.05584,-50.313536)"
       inkscape:transform-center-x="-0.25860573"
       inkscape:transform-center-y="0.26826039" /></g></svg>
